<svg xmlns="http://www.w3.org/2000/svg" width="34.894" height="22.874" viewBox="0 0 34.894 22.874">
  <g id="Group_94" data-name="Group 94" transform="translate(0.375 0.375)">
    <path id="Path_14" data-name="Path 14" d="M233.167,5139.282h31.066a4.121,4.121,0,0,1-.372.417q-7.028,5.546-14.065,11.085c-1.04.819-1.323.813-2.34.012q-6.972-5.48-13.939-10.963a3.124,3.124,0,0,0-.546-.28Z" transform="translate(-231.54 -5139.282)" fill="none" stroke="#000" stroke-width="0.75"/>
    <path id="Path_15" data-name="Path 15" d="M233.416,5155.763l10.094-8.513c.764.59,1.494,1.166,2.238,1.726a4.175,4.175,0,0,0,5.326-.009c.723-.55,1.425-1.123,2.22-1.752l10.065,8.548Z" transform="translate(-231.328 -5133.639)" fill="none" stroke="#000" stroke-width="0.75"/>
    <path id="Path_16" data-name="Path 16" d="M246.805,5149.7l9.414-9.064v18.9Z" transform="translate(-222.075 -5138.641)" fill="none" stroke="#000" stroke-width="0.75"/>
    <path id="Path_17" data-name="Path 17" d="M232,5159.208v-18.569l9.424,9.068-9.2,9.557Z" transform="translate(-232 -5138.637)" fill="none" stroke="#000" stroke-width="0.75"/>
  </g>
</svg>
