<svg xmlns="http://www.w3.org/2000/svg" width="14.001" height="28.042" viewBox="0 0 14.001 28.042">
  <g id="beauty" transform="translate(-223.707 -111.423)">
    <g id="Group_22" data-name="Group 22">
      <path id="Path_31" data-name="Path 31" d="M225.879,139.284c.425-.353.97-.131,1.453-.168.524-.04,1.054-.009,1.774-.009-1.424-1.154-1.327-2.522-1.086-3.957.3-1.795.538-3.6.769-5.4a.721.721,0,0,0-.278-.6A8.238,8.238,0,0,1,224,123.009a10.566,10.566,0,0,1,2.028-9.24,5.853,5.853,0,0,1,9.321-.067,10.871,10.871,0,0,1-.178,13.736A10.709,10.709,0,0,1,233,129.053c-.29.188-.439.342-.39.686.267,1.84.553,3.678.774,5.524a7.815,7.815,0,0,1,.012,2.285,5.725,5.725,0,0,1-.864,1.559h1.017c.495,0,.992-.015,1.486.009a2.122,2.122,0,0,1,.528.166l-.043.183H225.9Zm-1.7-19.013a10.554,10.554,0,0,0,1.85,6.223c2.367,3.32,6.427,3.5,9.041.4a10.624,10.624,0,0,0,.137-12.653,5.461,5.461,0,0,0-8.99.028A9.774,9.774,0,0,0,224.175,120.271Zm7.877,9.246h-2.709c-.176,1.278-.359,2.627-.549,3.975-.149,1.056-.366,2.107-.444,3.169a2.154,2.154,0,0,0,1.286,2.162,2.274,2.274,0,0,0,2.471-.186,2.4,2.4,0,0,0,.953-2.52C232.733,133.909,232.387,131.7,232.052,129.517Z"/>
      <path id="Path_32" data-name="Path 32" d="M225.451,120.441a7.108,7.108,0,0,1,2.567-5.757,4.3,4.3,0,0,1,6.074.607,8.2,8.2,0,0,1,0,10.44c-2.213,2.465-5.752,1.986-7.525-1.028A8.1,8.1,0,0,1,225.451,120.441Zm.469.034a6.906,6.906,0,0,0,2.225,5.381,3.833,3.833,0,0,0,5.4-.252,7.686,7.686,0,0,0,.238-9.962,3.878,3.878,0,0,0-5.875-.271A6.871,6.871,0,0,0,225.92,120.475Z"/>
      <path id="Path_33" data-name="Path 33" d="M230.706,138.084a1.193,1.193,0,0,1-1.165-1.171,1.171,1.171,0,1,1,1.165,1.171Zm.2-1.9c-.606.079-.891.3-.886.742a.639.639,0,0,0,.673.675.61.61,0,0,0,.688-.7C231.342,136.619,231.045,136.376,230.908,136.18Z"/>
    </g>
  </g>
</svg>
