<svg xmlns="http://www.w3.org/2000/svg" width="22.981" height="23.627" viewBox="0 0 22.981 23.627">
  <g id="hair_care" transform="translate(-126.049 -115.166)">
    <g id="Group_20" data-name="Group 20">
      <path id="Path_29" data-name="Path 29" d="M131.125,131.979a10.988,10.988,0,0,1-4.41-5.508,13.239,13.239,0,0,1-.666-4.478c0-.527.344-.464.508-.48a15.99,15.99,0,0,1,1.031-2.564,4.909,4.909,0,0,1,4.743-2.393c2.02.111,4.039.256,6.06.349a19.011,19.011,0,0,0,7.749-1.5c1.083-.418.948-.343.953.691,0,.489-.024.979,0,1.467a3.982,3.982,0,0,1-2,3.959c.808,0,1.461.02,2.112-.008.4-.018.6.089.546.521a30.888,30.888,0,0,1-.4,3.414,13.014,13.014,0,0,1-1.031,2.342c.634,0,1.408-.01,2.181.009a1.517,1.517,0,0,1,.472.183,1.467,1.467,0,0,1-.474.191c-1.322.015-2.645.009-4,.009v.937h.98c1.03,0,2.06-.01,3.09.006.136,0,.27.129.406.2a1.185,1.185,0,0,1-.389.159c-1.152.019-2.305.02-3.457.025h-.627l-.043.934c.893,0,1.757,0,2.621,0,.506,0,1.013-.02,1.518,0,.129,0,.254.113.38.173-.133.075-.265.212-.4.215-1.151.022-2.3.021-3.456.026-.189,0-.379,0-.6,0v.921h3.718a1.709,1.709,0,0,1,.365,0,2.355,2.355,0,0,1,.387.152c-.136.066-.271.186-.409.189-1.152.028-2.3.034-3.455.046-.19,0-.38,0-.605,0v.918c.743,0,1.485,0,2.228,0,.628,0,1.256-.022,1.884-.007.121,0,.239.128.359.2-.121.067-.241.188-.363.19-1.169.021-2.339.021-3.509.027h-.6v.92h1.189c.943,0,1.886-.01,2.829.006a1.451,1.451,0,0,1,.459.18,1.565,1.565,0,0,1-.477.179c-1.134.027-2.269.031-3.4.042h-.584v.92c.7,0,1.377,0,2.052,0,.7,0,1.4-.022,2.094-.008.115,0,.226.14.339.215-.113.055-.225.155-.34.158-1.186.024-2.373.031-3.56.045-.186,0-.373.016-.585.026v.87c1.3,0,2.59,0,3.875,0,.07,0,.15-.031.208-.007a4.372,4.372,0,0,1,.4.217c-.127.061-.253.173-.381.175-1.169.019-2.339.02-3.509.025h-.589v.934c.63,0,1.252,0,1.874,0,.751,0,1.5-.017,2.252,0,.123,0,.245.114.367.175-.121.069-.241.2-.363.2q-3.168.035-6.336.037a.826.826,0,0,1-.893-.883c-.023-.558-.005-1.117-.01-1.676-.01-.934-.417-1.348-1.345-1.344q-3.979.018-7.96.05a1.7,1.7,0,0,1-1.409-.551,1.519,1.519,0,0,1,.075-2.088C130.883,132.2,130.985,132.113,131.125,131.979Zm16.233-10.012H126.5a10.429,10.429,0,0,0,4.735,9.586,2.121,2.121,0,0,0,1.023.273c.8.031,1.6-.014,2.406-.018,1.746-.009,3.492-.011,5.237-.018,1.084,0,1.456-.373,1.456-1.437,0-.489,0-.978,0-1.467.007-.737.32-1.051,1.05-1.061.785-.01,1.57-.033,2.355-.024a1.687,1.687,0,0,0,1.558-.885A9.02,9.02,0,0,0,147.358,121.967Zm-20.146-.479a1.277,1.277,0,0,0,.2.03c5.377,0,10.754.014,16.131-.007a3.045,3.045,0,0,0,3.016-2.5,22.678,22.678,0,0,0,.032-3.343c-.507.177-1.048.36-1.585.555a17.65,17.65,0,0,1-7.089,1.062c-1.88-.108-3.76-.23-5.64-.348a4.842,4.842,0,0,0-2.482.5A4.564,4.564,0,0,0,127.212,121.488Zm16.88,6.743c-.667,0-1.241,0-1.814,0-.378,0-.518.218-.514.574.007.576,0,1.153,0,1.729a1.51,1.51,0,0,1-1.636,1.628q-1.938.022-3.875.033c-1.4.009-2.794.006-4.191.021-.822.009-1.318.462-1.317,1.169a1.124,1.124,0,0,0,1.273,1.142c2.671,0,5.343-.022,8.014-.03a1.552,1.552,0,0,1,1.785,1.751c.012.523,0,1.047.006,1.571,0,.313.12.565.472.575.606.017,1.212,0,1.8,0Z"/>
      <path id="Path_30" data-name="Path 30" d="M131.289,118.184a1.577,1.577,0,0,1-.333.229,2.933,2.933,0,0,0-1.971,1.5c-.033.066-.162.085-.246.126-.027-.1-.1-.219-.073-.311a3.2,3.2,0,0,1,2.3-1.691A1.259,1.259,0,0,1,131.289,118.184Z"/>
    </g>
  </g>
</svg>
