<svg xmlns="http://www.w3.org/2000/svg" width="24.989" height="25.311" viewBox="0 0 24.989 25.311">
  <path id="skin_care" d="M35.751,120.61c0-.694-.017-1.285,0-1.876a.907.907,0,0,1,.982-.993c.454-.023.91,0,1.443,0,0-.769-.005-1.464,0-2.159a1.5,1.5,0,0,1,1.841-1.655c1.023.115,2.043.269,3.069.347.771.059.6.6.628,1.055.028.481-.1.784-.682.805-.938.035-1.294.537-1.167,1.606.445,0,.9-.011,1.356,0,.755.022,1.064.335,1.081,1.1.012.565,0,1.132,0,1.773h.818c.9,0,1,.1,1,1.031,0,.987,0,1.974,0,2.961,0,.192.021.384.034.6,3.879.329,7.72.744,11.412-.905.688-.308.785-.2.794.553,0,.263-.009.526,0,.789a3.985,3.985,0,0,1-1.328,3.59c.5,0,.8.026,1.092-.006.62-.067.772.2.773.8.006,7.047-6.935,11.274-12.933,8.147a19.805,19.805,0,0,1-2.367.336c-2.587.036-5.175.016-7.762.013a1.726,1.726,0,0,1-1.917-1.85c-.014-5.088,0-10.177-.01-15.265,0-.594.265-.839.848-.8C35.072,120.627,35.375,120.61,35.751,120.61Zm6.089,9.141a8.029,8.029,0,0,0,4.1,7.808,7.94,7.94,0,0,0,8.98-.468,8.122,8.122,0,0,0,3.458-7.34Zm-7.4-5.131v.668q0,5.592,0,11.183c0,1.123.417,1.569,1.535,1.575q4.045.02,8.09,0a6.4,6.4,0,0,0,1.05-.178c-.041-.158-.038-.214-.064-.237-.116-.1-.24-.19-.359-.286a8.839,8.839,0,0,1-3.406-7.609,1.017,1.017,0,0,1,.176-.444c.13-.215.363-.4.42-.625a4.171,4.171,0,0,1,3.269-3.31c.475-.112.554-.315.405-.733Zm23.4.114c-.324.111-.612.2-.895.307A15.269,15.269,0,0,1,50.5,126c-1.4-.094-2.8-.189-4.2-.244a4.484,4.484,0,0,0-1.36.151c-1.635.457-2.755,2.263-2.532,3.262a.389.389,0,0,0,.12.044c4.317,0,8.634.029,12.951-.007a2.4,2.4,0,0,0,2.344-2.246C57.891,126.245,57.836,125.52,57.836,124.734Zm-12.259-.625v-2.934H34.483v2.934Zm-9.316-3.541H43.8c0-.607-.009-1.173,0-1.739.01-.415-.167-.589-.588-.587q-3.185.014-6.37,0c-.37,0-.586.122-.582.525C36.266,119.355,36.261,119.942,36.261,120.568Zm2.414-2.867h2.6c-.021-1.332.6-2.08,2.173-2.152-.264-.365-.4-.75-.587-.78-1.059-.167-2.129-.274-3.2-.351a.885.885,0,0,0-.982.919C38.654,116.1,38.675,116.865,38.675,117.7Z" transform="translate(-33.923 -113.905)"/>
</svg>
