<svg xmlns="http://www.w3.org/2000/svg" width="21.802" height="24.211" viewBox="0 0 21.802 24.211">
  <g id="wellness" transform="translate(-329.962 -113.062)">
    <g id="Group_24" data-name="Group 24">
      <path id="Path_35" data-name="Path 35" d="M346.532,117.622l3.69-3.67a3.575,3.575,0,0,0-.415-.058c-.526-.008-1.058.03-1.578-.03-.181-.021-.334-.279-.5-.428.172-.123.342-.347.518-.353,1-.034,2-.016,3-.016a.457.457,0,0,1,.512.5c.007,1.018.021,2.036-.017,3.053-.006.162-.265.315-.407.472-.131-.166-.363-.324-.375-.5-.045-.648-.018-1.3-.018-1.94l-3.667,3.748a5.65,5.65,0,1,1-9.89,4.858,3.308,3.308,0,0,1-.12-.966c.017-.2.222-.382.342-.571.145.171.4.33.419.515a5.1,5.1,0,0,0,1.495,3.186,4.831,4.831,0,1,0-.216-6.723c-.133.149-.231.352-.394.445a2.032,2.032,0,0,1-.607.136c-.005-.21-.1-.481,0-.62a5.37,5.37,0,0,1,3.314-2.216A5.717,5.717,0,0,1,346.532,117.622Z"/>
      <path id="Path_36" data-name="Path 36" d="M335.2,133.666a11.6,11.6,0,0,1-1.435-.018c-.2-.026-.5-.221-.532-.384-.072-.355.247-.431.537-.437.452-.008.9,0,1.392,0v-1.966c-.3-.064-.615-.123-.926-.2a5.65,5.65,0,1,1,7.005-5.97c.026.3.012.585-.349.616-.4.034-.438-.29-.473-.592a4.827,4.827,0,1,0-1.049,3.493c.068-.085.118-.221.2-.248a4.056,4.056,0,0,1,.617-.105c.008.2.1.485.009.574a14.6,14.6,0,0,1-1.995,1.726,5.362,5.362,0,0,1-1.74.574c-.323.074-.478.161-.462.514.024.5.007,1.009.007,1.585a12.116,12.116,0,0,1,1.449.019c.2.024.5.221.533.383.066.348-.248.432-.541.437-.451.007-.9,0-1.442,0v2.468a2.091,2.091,0,0,1-.017.649,1.878,1.878,0,0,1-.387.49c-.134-.163-.375-.321-.384-.49-.041-.816-.019-1.635-.02-2.452Z"/>
    </g>
  </g>
</svg>
